g atlas.png
v 0.00195313 0.331055 -0.000976563
v 0.142578 -0.105469 -0.141602
v -0.138672 -0.105469 -0.141602
v 0.00195313 0.331055 -0.000976563
v -0.138672 -0.105469 -0.141602
v -0.138672 -0.105469 0.139648
v 0.00195313 0.331055 -0.000976563
v -0.138672 -0.105469 0.139648
v 0.142578 -0.105469 0.139648
v 0.00195313 0.331055 -0.000976563
v 0.142578 -0.105469 0.139648
v 0.142578 -0.105469 -0.141602
v 0.142578 -0.105469 -0.141602
v 0.142578 -0.105469 0.139648
v -0.138672 -0.105469 0.139648
v 0.142578 -0.105469 -0.141602
v -0.138672 -0.105469 0.139648
v -0.138672 -0.105469 -0.141602
vt 0.417969 0.996094
vt 0.375 0.917969
vt 0.375 0.917969
vt 0.417969 0.996094
vt 0.375 0.917969
vt 0.457031 0.917969
vt 0.417969 0.996094
vt 0.457031 0.917969
vt 0.457031 0.917969
vt 0.417969 0.996094
vt 0.457031 0.917969
vt 0.375 0.917969
vt 0.359375 0.502604
vt 0.359375 0.579427
vt 0.132813 0.579427
vt 0.359375 0.502604
vt 0.132813 0.579427
vt 0.132813 0.502604
vn 0 0.306629 -0.951829
vn 0 0.306629 -0.951829
vn 0 0.306629 -0.951829
vn -0.951829 0.306629 0
vn -0.951829 0.306629 0
vn -0.951829 0.306629 0
vn 0 0.306629 0.951829
vn 0 0.306629 0.951829
vn 0 0.306629 0.951829
vn 0.951829 0.306629 0
vn 0.951829 0.306629 0
vn 0.951829 0.306629 0
vn 0 -1 0
vn 0 -1 0
vn 0 -1 0
vn 0 -1 0
vn 0 -1 0
vn 0 -1 0
f 1/1/1 2/2/2 3/3/3
f 4/4/4 5/5/5 6/6/6
f 7/7/7 8/8/8 9/9/9
f 10/10/10 11/11/11 12/12/12
f 13/13/13 14/14/14 15/15/15
f 16/16/16 17/17/17 18/18/18
