g atlas.png
v -0.828125 -0.1875 0.0585938
v -0.692383 -0.109375 0.21582
v -0.739258 -0.0273438 -0.0205078
v -0.739258 -0.0273438 -0.0205078
v -0.555664 -0.0302734 0.0585938
v -0.555664 -0.0302734 -0.0976563
v -0.828125 -0.1875 -0.0986328
v -0.828125 -0.1875 0.0585938
v -0.739258 -0.0273438 -0.0205078
v -0.739258 -0.0273438 -0.0205078
v -0.555664 -0.0302734 -0.0976563
v -0.624023 -0.0693359 -0.216797
v -0.760742 -0.148438 -0.216797
v -0.828125 -0.1875 -0.0986328
v -0.739258 -0.0273438 -0.0205078
v -0.739258 -0.0273438 -0.0205078
v -0.624023 -0.0693359 -0.216797
v -0.760742 -0.148438 -0.216797
v -0.739258 -0.0273438 -0.0205078
v -0.692383 -0.109375 0.21582
v -0.555664 -0.0302734 0.0585938
v -0.451172 0.0322266 -0.126953
v -0.451172 0.0322266 0.0585938
v -0.451172 0.178711 0.139648
v -0.451172 0.178711 0.139648
v -0.451172 0.178711 0.0761719
v -0.451172 0.0322266 -0.126953
v -0.451172 0.178711 0.0761719
v -0.451172 0.178711 0.139648
v -0.451172 0.0322266 0.0585938
v -0.451172 0.0322266 0.0585938
v -0.451172 0.0322266 -0.126953
v -0.451172 0.178711 0.0761719
v -0.555664 -0.0302734 -0.0976563
v -0.555664 -0.0302734 0.0585938
v -0.451172 0.0322266 0.0585938
v -0.451172 0.0322266 0.0585938
v -0.451172 0.0322266 -0.126953
v -0.555664 -0.0302734 -0.0976563
v -0.240234 0.0322266 -0.293945
v -0.451172 0.0322266 -0.126953
v -0.451172 0.0322266 0.0585938
v -0.451172 0.0322266 0.0585938
v -0.240234 0.0322266 0.0917969
v -0.240234 0.0322266 -0.293945
v -0.101563 0.135742 -0.0869141
v -0.220703 0.135742 -0.0869141
v -0.220703 0.135742 0.273438
v -0.101563 0.135742 -0.0869141
v -0.220703 0.135742 0.273438
v -0.101563 0.135742 0.273438
v 0.738281 -0.0273438 -0.0205078
v 0.691406 -0.109375 0.21582
v 0.827148 -0.1875 0.0585938
v 0.554688 -0.0302734 -0.0976563
v 0.554688 -0.0302734 0.0585938
v 0.738281 -0.0273438 -0.0205078
v 0.738281 -0.0273438 -0.0205078
v 0.827148 -0.1875 0.0585938
v 0.827148 -0.1875 -0.0986328
v 0.623047 -0.0693359 -0.216797
v 0.554688 -0.0302734 -0.0976563
v 0.738281 -0.0273438 -0.0205078
v 0.738281 -0.0273438 -0.0205078
v 0.827148 -0.1875 -0.0986328
v 0.758789 -0.148438 -0.216797
v 0.758789 -0.148438 -0.216797
v 0.623047 -0.0693359 -0.216797
v 0.738281 -0.0273438 -0.0205078
v 0.554688 -0.0302734 0.0585938
v 0.691406 -0.109375 0.21582
v 0.738281 -0.0273438 -0.0205078
v 0.449219 0.178711 0.139648
v 0.449219 0.0322266 0.0585938
v 0.449219 0.0322266 -0.126953
v 0.449219 0.0322266 -0.126953
v 0.449219 0.178711 0.0761719
v 0.449219 0.178711 0.139648
v 0.449219 0.0322266 0.0585938
v 0.449219 0.178711 0.139648
v 0.449219 0.178711 0.0761719
v 0.449219 0.178711 0.0761719
v 0.449219 0.0322266 -0.126953
v 0.449219 0.0322266 0.0585938
v 0.449219 0.0322266 0.0585938
v 0.554688 -0.0302734 0.0585938
v 0.554688 -0.0302734 -0.0976563
v 0.554688 -0.0302734 -0.0976563
v 0.449219 0.0322266 -0.126953
v 0.449219 0.0322266 0.0585938
v 0.449219 0.0322266 0.0585938
v 0.449219 0.0322266 -0.126953
v 0.239258 0.0322266 -0.293945
v 0.239258 0.0322266 -0.293945
v 0.239258 0.0322266 0.0917969
v 0.449219 0.0322266 0.0585938
v 0.219727 0.135742 0.273438
v 0.219727 0.135742 -0.0869141
v 0.100586 0.135742 -0.0869141
v 0.100586 0.135742 0.273438
v 0.219727 0.135742 0.273438
v 0.100586 0.135742 -0.0869141
v -0.0820313 0.0322266 0.0917969
v 0.0810547 0.0322266 0.0917969
v 0.0810547 0.0322266 -0.294922
v 0.0810547 0.0322266 -0.294922
v -0.0820313 0.0322266 -0.294922
v -0.0820313 0.0322266 0.0917969
v 0.100586 0.135742 0.273438
v 0.0810547 0 0.318359
v 0.219727 0.135742 0.273438
v 0.239258 0 0.318359
v 0.219727 0.135742 0.273438
v 0.0810547 0 0.318359
v -0.220703 0.135742 0.273438
v -0.0820313 0 0.318359
v -0.101563 0.135742 0.273438
v -0.0820313 0 0.318359
v -0.220703 0.135742 0.273438
v -0.240234 0 0.318359
v 0.0810547 -0.0527344 0.182617
v 0.239258 -0.0527344 0.182617
v 0.239258 0 0.318359
v 0.0810547 0 0.318359
v 0.0810547 -0.0527344 0.182617
v 0.239258 0 0.318359
v -0.240234 0 0.318359
v -0.240234 -0.0527344 0.182617
v -0.0820313 -0.0527344 0.182617
v -0.240234 0 0.318359
v -0.0820313 -0.0527344 0.182617
v -0.0820313 0 0.318359
v 0.239258 0.0322266 -0.293945
v 0.0810547 0.0322266 -0.294922
v 0.100586 0.135742 -0.0869141
v 0.219727 0.135742 -0.0869141
v 0.239258 0.0322266 -0.293945
v 0.100586 0.135742 -0.0869141
v -0.101563 0.135742 -0.0869141
v -0.0820313 0.0322266 -0.294922
v -0.240234 0.0322266 -0.293945
v -0.101563 0.135742 -0.0869141
v -0.240234 0.0322266 -0.293945
v -0.220703 0.135742 -0.0869141
v 0.239258 -0.0527344 0.182617
v 0.0810547 -0.0527344 0.182617
v 0.0810547 0.0322266 0.0917969
v 0.239258 0.0322266 0.0917969
v 0.239258 -0.0527344 0.182617
v 0.0810547 0.0322266 0.0917969
v -0.240234 0.0322266 0.0917969
v -0.240234 0 0.318359
v -0.220703 0.135742 0.273438
v -0.220703 0.135742 0.273438
v -0.220703 0.135742 -0.0869141
v -0.240234 0.0322266 0.0917969
v -0.0820313 0.0322266 0.0917969
v -0.0820313 0.0322266 -0.294922
v -0.101563 0.135742 -0.0869141
v -0.101563 0.135742 -0.0869141
v -0.101563 0.135742 0.273438
v -0.0820313 0.0322266 0.0917969
v -0.220703 0.135742 -0.0869141
v -0.240234 0.0322266 -0.293945
v -0.240234 0.0322266 0.0917969
v -0.0820313 0 0.318359
v -0.0820313 -0.0527344 0.182617
v -0.0820313 0.0322266 0.0917969
v -0.240234 0.0322266 0.0917969
v -0.240234 -0.0527344 0.182617
v -0.240234 0 0.318359
v -0.101563 0.135742 0.273438
v -0.0820313 0 0.318359
v -0.0820313 0.0322266 0.0917969
v 0.219727 0.135742 0.273438
v 0.239258 0 0.318359
v 0.239258 0.0322266 0.0917969
v 0.239258 0.0322266 0.0917969
v 0.219727 0.135742 -0.0869141
v 0.219727 0.135742 0.273438
v 0.100586 0.135742 -0.0869141
v 0.0810547 0.0322266 -0.294922
v 0.0810547 0.0322266 0.0917969
v 0.0810547 0.0322266 0.0917969
v 0.100586 0.135742 0.273438
v 0.100586 0.135742 -0.0869141
v 0.239258 0.0322266 0.0917969
v 0.239258 0.0322266 -0.293945
v 0.219727 0.135742 -0.0869141
v 0.0810547 0.0322266 0.0917969
v 0.0810547 -0.0527344 0.182617
v 0.0810547 0 0.318359
v 0.239258 0 0.318359
v 0.239258 -0.0527344 0.182617
v 0.239258 0.0322266 0.0917969
v 0.0810547 0.0322266 0.0917969
v 0.0810547 0 0.318359
v 0.100586 0.135742 0.273438
v -0.0820313 0.0322266 -0.294922
v -0.240234 0.0322266 0.0917969
v -0.240234 0.0322266 -0.293945
v -0.240234 0.0322266 0.0917969
v -0.0820313 0.0322266 -0.294922
v -0.0820313 0.0322266 0.0917969
v 0.239258 0.0322266 -0.293945
v 0.239258 0.0322266 0.0917969
v 0.0810547 0.0322266 -0.294922
v 0.0810547 0.0322266 0.0917969
v 0.0810547 0.0322266 -0.294922
v 0.239258 0.0322266 0.0917969
v -0.692383 -0.109375 0.21582
v -0.828125 -0.1875 0.0585938
v -0.555664 -0.0302734 0.0585938
v -0.555664 -0.0302734 0.0585938
v -0.828125 -0.1875 0.0585938
v -0.828125 -0.1875 -0.0986328
v -0.828125 -0.1875 -0.0986328
v -0.555664 -0.0302734 -0.0976563
v -0.555664 -0.0302734 0.0585938
v -0.555664 -0.0302734 -0.0976563
v -0.828125 -0.1875 -0.0986328
v -0.760742 -0.148438 -0.216797
v -0.760742 -0.148438 -0.216797
v -0.624023 -0.0693359 -0.216797
v -0.555664 -0.0302734 -0.0976563
v 0.554688 -0.0302734 0.0585938
v 0.827148 -0.1875 0.0585938
v 0.691406 -0.109375 0.21582
v 0.827148 -0.1875 -0.0986328
v 0.827148 -0.1875 0.0585938
v 0.554688 -0.0302734 0.0585938
v 0.554688 -0.0302734 0.0585938
v 0.554688 -0.0302734 -0.0976563
v 0.827148 -0.1875 -0.0986328
v 0.758789 -0.148438 -0.216797
v 0.827148 -0.1875 -0.0986328
v 0.554688 -0.0302734 -0.0976563
v 0.554688 -0.0302734 -0.0976563
v 0.623047 -0.0693359 -0.216797
v 0.758789 -0.148438 -0.216797
v -0.0820313 0.0322266 0.0917969
v -0.0820313 -0.0527344 0.182617
v -0.240234 -0.0527344 0.182617
v -0.0820313 0.0322266 0.0917969
v -0.240234 -0.0527344 0.182617
v -0.240234 0.0322266 0.0917969
v 0.0810547 0.0322266 0.0917969
v -0.0820313 0.0322266 0.0917969
v -0.0820313 0.0322266 -0.294922
v -0.0820313 0.0322266 -0.294922
v 0.0810547 0.0322266 -0.294922
v 0.0810547 0.0322266 0.0917969
v -0.555664 -0.0302734 0.0585938
v -0.555664 -0.0302734 -0.0976563
v -0.451172 0.0322266 -0.126953
v -0.555664 -0.0302734 0.0585938
v -0.451172 0.0322266 -0.126953
v -0.451172 0.0322266 0.0585938
v -0.451172 0.0322266 -0.126953
v -0.240234 0.0322266 -0.293945
v -0.240234 0.0322266 0.0917969
v -0.240234 0.0322266 0.0917969
v -0.451172 0.0322266 0.0585938
v -0.451172 0.0322266 -0.126953
v 0.449219 0.0322266 -0.126953
v 0.554688 -0.0302734 -0.0976563
v 0.554688 -0.0302734 0.0585938
v 0.449219 0.0322266 0.0585938
v 0.449219 0.0322266 -0.126953
v 0.554688 -0.0302734 0.0585938
v 0.239258 0.0322266 0.0917969
v 0.239258 0.0322266 -0.293945
v 0.449219 0.0322266 -0.126953
v 0.449219 0.0322266 -0.126953
v 0.449219 0.0322266 0.0585938
v 0.239258 0.0322266 0.0917969
vt 0.125 0.613281
vt 0.25 0.583333
vt 0.25 0.628906
vt 0.25 0.628906
vt 0.371094 0.613281
vt 0.371094 0.643229
vt 0.125 0.643229
vt 0.125 0.613281
vt 0.25 0.628906
vt 0.25 0.628906
vt 0.371094 0.643229
vt 0.308594 0.665365
vt 0.1875 0.665365
vt 0.125 0.643229
vt 0.25 0.628906
vt 0.25 0.628906
vt 0.308594 0.665365
vt 0.1875 0.665365
vt 0.25 0.628906
vt 0.25 0.583333
vt 0.371094 0.613281
vt 0.125 0.0846354
vt 0.296875 0.0846354
vt 0.371094 0.164063
vt 0.371094 0.164063
vt 0.3125 0.164063
vt 0.125 0.0846354
vt 0.3125 0.164063
vt 0.371094 0.164063
vt 0.296875 0.0846354
vt 0.296875 0.0846354
vt 0.125 0.0846354
vt 0.3125 0.164063
vt 0.136719 0.209635
vt 0.136719 0.238281
vt 0.210938 0.238281
vt 0.210938 0.238281
vt 0.210938 0.204427
vt 0.136719 0.209635
vt 0.363281 0.173177
vt 0.210938 0.204427
vt 0.210938 0.238281
vt 0.210938 0.238281
vt 0.363281 0.244792
vt 0.363281 0.173177
vt 0.925781 0.153646
vt 0.988281 0.153646
vt 0.988281 0.233073
vt 0.925781 0.153646
vt 0.988281 0.233073
vt 0.925781 0.233073
vt 0.25 0.628906
vt 0.25 0.584635
vt 0.371094 0.613281
vt 0.128906 0.643229
vt 0.128906 0.613281
vt 0.25 0.628906
vt 0.25 0.628906
vt 0.371094 0.613281
vt 0.371094 0.643229
vt 0.1875 0.664063
vt 0.128906 0.643229
vt 0.25 0.628906
vt 0.25 0.628906
vt 0.371094 0.643229
vt 0.308594 0.664063
vt 0.308594 0.664063
vt 0.1875 0.664063
vt 0.25 0.628906
vt 0.128906 0.613281
vt 0.25 0.584635
vt 0.25 0.628906
vt 0.371094 0.164063
vt 0.296875 0.0846354
vt 0.125 0.0846354
vt 0.125 0.0846354
vt 0.3125 0.164063
vt 0.371094 0.164063
vt 0.296875 0.0846354
vt 0.371094 0.164063
vt 0.3125 0.164063
vt 0.3125 0.164063
vt 0.125 0.0846354
vt 0.296875 0.0846354
vt 0.214844 0.238281
vt 0.140625 0.238281
vt 0.140625 0.209635
vt 0.140625 0.209635
vt 0.214844 0.204427
vt 0.214844 0.238281
vt 0.214844 0.238281
vt 0.214844 0.204427
vt 0.363281 0.173177
vt 0.363281 0.173177
vt 0.363281 0.244792
vt 0.214844 0.238281
vt 0.75 0.233073
vt 0.75 0.153646
vt 0.8125 0.153646
vt 0.8125 0.233073
vt 0.75 0.233073
vt 0.8125 0.153646
vt 0.300781 0.244792
vt 0.199219 0.244792
vt 0.199219 0.170573
vt 0.199219 0.170573
vt 0.300781 0.170573
vt 0.300781 0.244792
vt 0.015625 0.0403646
vt 0 0
vt 0.105469 0.0403646
vt 0.121094 0
vt 0.105469 0.0403646
vt 0 0
vt 0.015625 0.0403646
vt 0.121094 0
vt 0.105469 0.0403646
vt 0.121094 0
vt 0.015625 0.0403646
vt 0 0
vt 0.125 0
vt 0.246094 0
vt 0.246094 0.0403646
vt 0.125 0.0403646
vt 0.125 0
vt 0.246094 0.0403646
vt 0.125 0.0403646
vt 0.125 0
vt 0.246094 0
vt 0.125 0.0403646
vt 0.246094 0
vt 0.246094 0.0403646
vt 0 0.0611979
vt 0.121094 0.0611979
vt 0.105469 0.101563
vt 0.015625 0.101563
vt 0 0.0611979
vt 0.105469 0.101563
vt 0.390625 0.0403646
vt 0.375 0
vt 0.496094 0
vt 0.390625 0.0403646
vt 0.496094 0
vt 0.480469 0.0403646
vt 0 0.0611979
vt 0.121094 0.0611979
vt 0.121094 0.101563
vt 0 0.101563
vt 0 0.0611979
vt 0.121094 0.101563
vt 0.898438 0.191406
vt 0.992188 0.177083
vt 0.972656 0.234375
vt 0.972656 0.234375
vt 0.828125 0.234375
vt 0.898438 0.191406
vt 0.898438 0.191406
vt 0.746094 0.191406
vt 0.828125 0.234375
vt 0.828125 0.234375
vt 0.972656 0.234375
vt 0.898438 0.191406
vt 0.828125 0.234375
vt 0.746094 0.191406
vt 0.898438 0.191406
vt 0.992188 0.177083
vt 0.9375 0.154948
vt 0.898438 0.191406
vt 0.898438 0.191406
vt 0.9375 0.154948
vt 0.992188 0.177083
vt 0.972656 0.234375
vt 0.992188 0.177083
vt 0.898438 0.191406
vt 0.972656 0.234375
vt 0.992188 0.177083
vt 0.898438 0.191406
vt 0.898438 0.191406
vt 0.828125 0.234375
vt 0.972656 0.234375
vt 0.828125 0.234375
vt 0.746094 0.191406
vt 0.898438 0.191406
vt 0.898438 0.191406
vt 0.972656 0.234375
vt 0.828125 0.234375
vt 0.898438 0.191406
vt 0.746094 0.191406
vt 0.828125 0.234375
vt 0.898438 0.191406
vt 0.9375 0.154948
vt 0.992188 0.177083
vt 0.992188 0.177083
vt 0.9375 0.154948
vt 0.898438 0.191406
vt 0.898438 0.191406
vt 0.992188 0.177083
vt 0.972656 0.234375
vt 0.457031 0.334635
vt 0.378906 0.414063
vt 0.378906 0.334635
vt 0.378906 0.414063
vt 0.457031 0.334635
vt 0.457031 0.414063
vt 0.621094 0.334635
vt 0.621094 0.414063
vt 0.539063 0.334635
vt 0.539063 0.414063
vt 0.539063 0.334635
vt 0.621094 0.414063
vt 0.496094 0.415365
vt 0.621094 0.385417
vt 0.375 0.385417
vt 0.375 0.385417
vt 0.621094 0.385417
vt 0.621094 0.355469
vt 0.621094 0.355469
vt 0.375 0.355469
vt 0.375 0.385417
vt 0.375 0.355469
vt 0.621094 0.355469
vt 0.558594 0.333333
vt 0.558594 0.333333
vt 0.4375 0.333333
vt 0.375 0.355469
vt 0.617188 0.385417
vt 0.375 0.385417
vt 0.496094 0.414063
vt 0.375 0.355469
vt 0.375 0.385417
vt 0.617188 0.385417
vt 0.617188 0.385417
vt 0.617188 0.355469
vt 0.375 0.355469
vt 0.4375 0.334635
vt 0.375 0.355469
vt 0.617188 0.355469
vt 0.617188 0.355469
vt 0.558594 0.334635
vt 0.4375 0.334635
vt 0 0.101563
vt 0 0.0611979
vt 0.121094 0.0611979
vt 0 0.101563
vt 0.121094 0.0611979
vt 0.121094 0.101563
vt 0.820313 0.480469
vt 0.921875 0.480469
vt 0.921875 0.40625
vt 0.921875 0.40625
vt 0.820313 0.40625
vt 0.820313 0.480469
vt 0.757813 0.473958
vt 0.757813 0.445313
vt 0.832031 0.440104
vt 0.757813 0.473958
vt 0.832031 0.440104
vt 0.832031 0.473958
vt 0.832031 0.440104
vt 0.984375 0.408854
vt 0.984375 0.480469
vt 0.984375 0.480469
vt 0.832031 0.473958
vt 0.832031 0.440104
vt 0.835938 0.440104
vt 0.761719 0.445313
vt 0.761719 0.473958
vt 0.835938 0.473958
vt 0.835938 0.440104
vt 0.761719 0.473958
vt 0.984375 0.480469
vt 0.984375 0.408854
vt 0.835938 0.440104
vt 0.835938 0.440104
vt 0.835938 0.473958
vt 0.984375 0.480469
vn -0.736519 0.580319 0.347519
vn -0.736519 0.580319 0.347519
vn -0.736519 0.580319 0.347519
vn 0.0159554 0.999873 0
vn 0.0159554 0.999873 0
vn 0.0159554 0.999873 0
vn -0.874409 0.48519 0
vn -0.874409 0.48519 0
vn -0.874409 0.48519 0
vn -0.0942998 0.960751 -0.260894
vn -0.0942998 0.960751 -0.260894
vn -0.0942998 0.960751 -0.260894
vn -0.784326 0.56265 -0.261261
vn -0.784326 0.56265 -0.261261
vn -0.784326 0.56265 -0.261261
vn -0.451622 0.780582 -0.432122
vn -0.451622 0.780582 -0.432122
vn -0.451622 0.780582 -0.432122
vn -0.135468 0.927368 0.348766
vn -0.135468 0.927368 0.348766
vn -0.135468 0.927368 0.348766
vn -1 0 0
vn -1 0 0
vn -1 0 0
vn -1 0 -0
vn -1 0 -0
vn -1 0 -0
vn 1 0 -0
vn 1 0 -0
vn 1 0 -0
vn 1 -0 0
vn 1 -0 0
vn 1 -0 0
vn -0.513316 0.8582 0
vn -0.513316 0.8582 0
vn -0.513316 0.8582 0
vn -0.513316 0.8582 0
vn -0.513316 0.8582 0
vn -0.513316 0.8582 0
vn 0 1 0
vn 0 1 0
vn 0 1 0
vn -0 1 0
vn -0 1 0
vn -0 1 0
vn 0 1 0
vn 0 1 0
vn 0 1 0
vn 0 1 -0
vn 0 1 -0
vn 0 1 -0
vn 0.736519 0.580319 0.347519
vn 0.736519 0.580319 0.347519
vn 0.736519 0.580319 0.347519
vn -0.0159554 0.999873 0
vn -0.0159554 0.999873 0
vn -0.0159554 0.999873 0
vn 0.874409 0.48519 0
vn 0.874409 0.48519 0
vn 0.874409 0.48519 0
vn 0.0942998 0.960751 -0.260894
vn 0.0942998 0.960751 -0.260894
vn 0.0942998 0.960751 -0.260894
vn 0.781977 0.563679 -0.266043
vn 0.781977 0.563679 -0.266043
vn 0.781977 0.563679 -0.266043
vn 0.453829 0.778794 -0.433035
vn 0.453829 0.778794 -0.433035
vn 0.453829 0.778794 -0.433035
vn 0.135468 0.927368 0.348766
vn 0.135468 0.927368 0.348766
vn 0.135468 0.927368 0.348766
vn 1 0 0
vn 1 0 0
vn 1 0 0
vn 1 0 0
vn 1 0 0
vn 1 0 0
vn -1 0 0
vn -1 0 0
vn -1 0 0
vn -1 0 0
vn -1 0 0
vn -1 0 0
vn 0.509802 0.860291 0
vn 0.509802 0.860291 0
vn 0.509802 0.860291 0
vn 0.509802 0.860292 0
vn 0.509802 0.860292 0
vn 0.509802 0.860292 0
vn 0 1 0
vn 0 1 0
vn 0 1 0
vn 0 1 0
vn 0 1 0
vn 0 1 0
vn 0 1 0
vn 0 1 0
vn 0 1 0
vn -0 1 0
vn -0 1 0
vn -0 1 0
vn -0 1 0
vn -0 1 0
vn -0 1 0
vn 0 1 0
vn 0 1 0
vn 0 1 0
vn -0 0.314178 0.949364
vn -0 0.314178 0.949364
vn -0 0.314178 0.949364
vn 0 0.314178 0.949364
vn 0 0.314178 0.949364
vn 0 0.314178 0.949364
vn -0 0.314178 0.949364
vn -0 0.314178 0.949364
vn -0 0.314178 0.949364
vn 0 0.314178 0.949364
vn 0 0.314178 0.949364
vn 0 0.314178 0.949364
vn 0 -0.93213 0.362123
vn 0 -0.93213 0.362123
vn 0 -0.93213 0.362123
vn 0 -0.93213 0.362123
vn 0 -0.93213 0.362123
vn 0 -0.93213 0.362123
vn 0 -0.93213 0.362123
vn 0 -0.93213 0.362123
vn 0 -0.93213 0.362123
vn 0 -0.93213 0.362123
vn 0 -0.93213 0.362123
vn 0 -0.93213 0.362123
vn 0.00275146 0.89516 -0.445737
vn 0.00275146 0.89516 -0.445737
vn 0.00275146 0.89516 -0.445737
vn 0 0.894427 -0.447214
vn 0 0.894427 -0.447214
vn 0 0.894427 -0.447214
vn -0.00275146 0.89516 -0.445737
vn -0.00275146 0.89516 -0.445737
vn -0.00275146 0.89516 -0.445737
vn 0 0.894427 -0.447214
vn 0 0.894427 -0.447214
vn 0 0.894427 -0.447214
vn -0 -0.730271 -0.683157
vn -0 -0.730271 -0.683157
vn -0 -0.730271 -0.683157
vn -0 -0.730271 -0.683157
vn -0 -0.730271 -0.683157
vn -0 -0.730271 -0.683157
vn -0.988569 0.149267 0.0212319
vn -0.988569 0.149267 0.0212319
vn -0.988569 0.149267 0.0212319
vn -0.982662 0.185408 0
vn -0.982662 0.185408 0
vn -0.982662 0.185408 0
vn 0.982662 0.185408 0
vn 0.982662 0.185408 0
vn 0.982662 0.185408 0
vn 0.982662 0.185408 -0
vn 0.982662 0.185408 -0
vn 0.982662 0.185408 -0
vn -0.982662 0.185408 0
vn -0.982662 0.185408 0
vn -0.982662 0.185408 0
vn 1 0 0
vn 1 0 0
vn 1 0 0
vn -1 0 0
vn -1 0 0
vn -1 0 0
vn 0.988569 0.149267 0.0212319
vn 0.988569 0.149267 0.0212319
vn 0.988569 0.149267 0.0212319
vn 0.988569 0.149267 0.0212319
vn 0.988569 0.149267 0.0212319
vn 0.988569 0.149267 0.0212319
vn 0.982662 0.185408 0
vn 0.982662 0.185408 0
vn 0.982662 0.185408 0
vn -0.982662 0.185408 0
vn -0.982662 0.185408 0
vn -0.982662 0.185408 0
vn -0.982662 0.185408 0
vn -0.982662 0.185408 0
vn -0.982662 0.185408 0
vn 0.982662 0.185408 0
vn 0.982662 0.185408 0
vn 0.982662 0.185408 0
vn -1 0 0
vn -1 0 0
vn -1 0 0
vn 1 0 0
vn 1 0 0
vn 1 0 0
vn -0.988569 0.149267 0.0212319
vn -0.988569 0.149267 0.0212319
vn -0.988569 0.149267 0.0212319
vn 0 -1 0
vn 0 -1 0
vn 0 -1 0
vn 0 -1 0
vn 0 -1 0
vn 0 -1 0
vn -0 -1 0
vn -0 -1 0
vn -0 -1 0
vn 0 -1 0
vn 0 -1 0
vn 0 -1 0
vn 0.499812 -0.866133 -0.00113764
vn 0.499812 -0.866133 -0.00113764
vn 0.499812 -0.866133 -0.00113764
vn 0.499812 -0.866134 0
vn 0.499812 -0.866134 0
vn 0.499812 -0.866134 0
vn 0.499812 -0.866134 0
vn 0.499812 -0.866134 0
vn 0.499812 -0.866134 0
vn 0.499815 -0.866131 -0.0013058
vn 0.499815 -0.866131 -0.0013058
vn 0.499815 -0.866131 -0.0013058
vn 0.500789 -0.865562 -0.00354738
vn 0.500789 -0.865562 -0.00354738
vn 0.500789 -0.865562 -0.00354738
vn -0.499812 -0.866133 -0.00113764
vn -0.499812 -0.866133 -0.00113764
vn -0.499812 -0.866133 -0.00113764
vn -0.499812 -0.866134 0
vn -0.499812 -0.866134 0
vn -0.499812 -0.866134 0
vn -0.499812 -0.866134 -0
vn -0.499812 -0.866134 -0
vn -0.499812 -0.866134 -0
vn -0.499802 -0.866135 0.00281637
vn -0.499802 -0.866135 0.00281637
vn -0.499802 -0.866135 0.00281637
vn -0.503477 -0.863991 -0.00560437
vn -0.503477 -0.863991 -0.00560437
vn -0.503477 -0.863991 -0.00560437
vn 0 -0.730271 -0.683157
vn 0 -0.730271 -0.683157
vn 0 -0.730271 -0.683157
vn -0 -0.730271 -0.683157
vn -0 -0.730271 -0.683157
vn -0 -0.730271 -0.683157
vn -0 -1 0
vn -0 -1 0
vn -0 -1 0
vn 0 -1 0
vn 0 -1 0
vn 0 -1 0
vn 0.513316 -0.8582 0
vn 0.513316 -0.8582 0
vn 0.513316 -0.8582 0
vn 0.513316 -0.8582 0
vn 0.513316 -0.8582 0
vn 0.513316 -0.8582 0
vn 0 -1 0
vn 0 -1 0
vn 0 -1 0
vn 0 -1 0
vn 0 -1 0
vn 0 -1 0
vn -0.509802 -0.860291 0
vn -0.509802 -0.860291 0
vn -0.509802 -0.860291 0
vn -0.509802 -0.860292 -0
vn -0.509802 -0.860292 -0
vn -0.509802 -0.860292 -0
vn 0 -1 0
vn 0 -1 0
vn 0 -1 0
vn 0 -1 0
vn 0 -1 0
vn 0 -1 0
f 1/1/1 2/2/2 3/3/3
f 4/4/4 5/5/5 6/6/6
f 7/7/7 8/8/8 9/9/9
f 10/10/10 11/11/11 12/12/12
f 13/13/13 14/14/14 15/15/15
f 16/16/16 17/17/17 18/18/18
f 19/19/19 20/20/20 21/21/21
f 22/22/22 23/23/23 24/24/24
f 25/25/25 26/26/26 27/27/27
f 28/28/28 29/29/29 30/30/30
f 31/31/31 32/32/32 33/33/33
f 34/34/34 35/35/35 36/36/36
f 37/37/37 38/38/38 39/39/39
f 40/40/40 41/41/41 42/42/42
f 43/43/43 44/44/44 45/45/45
f 46/46/46 47/47/47 48/48/48
f 49/49/49 50/50/50 51/51/51
f 52/52/52 53/53/53 54/54/54
f 55/55/55 56/56/56 57/57/57
f 58/58/58 59/59/59 60/60/60
f 61/61/61 62/62/62 63/63/63
f 64/64/64 65/65/65 66/66/66
f 67/67/67 68/68/68 69/69/69
f 70/70/70 71/71/71 72/72/72
f 73/73/73 74/74/74 75/75/75
f 76/76/76 77/77/77 78/78/78
f 79/79/79 80/80/80 81/81/81
f 82/82/82 83/83/83 84/84/84
f 85/85/85 86/86/86 87/87/87
f 88/88/88 89/89/89 90/90/90
f 91/91/91 92/92/92 93/93/93
f 94/94/94 95/95/95 96/96/96
f 97/97/97 98/98/98 99/99/99
f 100/100/100 101/101/101 102/102/102
f 103/103/103 104/104/104 105/105/105
f 106/106/106 107/107/107 108/108/108
f 109/109/109 110/110/110 111/111/111
f 112/112/112 113/113/113 114/114/114
f 115/115/115 116/116/116 117/117/117
f 118/118/118 119/119/119 120/120/120
f 121/121/121 122/122/122 123/123/123
f 124/124/124 125/125/125 126/126/126
f 127/127/127 128/128/128 129/129/129
f 130/130/130 131/131/131 132/132/132
f 133/133/133 134/134/134 135/135/135
f 136/136/136 137/137/137 138/138/138
f 139/139/139 140/140/140 141/141/141
f 142/142/142 143/143/143 144/144/144
f 145/145/145 146/146/146 147/147/147
f 148/148/148 149/149/149 150/150/150
f 151/151/151 152/152/152 153/153/153
f 154/154/154 155/155/155 156/156/156
f 157/157/157 158/158/158 159/159/159
f 160/160/160 161/161/161 162/162/162
f 163/163/163 164/164/164 165/165/165
f 166/166/166 167/167/167 168/168/168
f 169/169/169 170/170/170 171/171/171
f 172/172/172 173/173/173 174/174/174
f 175/175/175 176/176/176 177/177/177
f 178/178/178 179/179/179 180/180/180
f 181/181/181 182/182/182 183/183/183
f 184/184/184 185/185/185 186/186/186
f 187/187/187 188/188/188 189/189/189
f 190/190/190 191/191/191 192/192/192
f 193/193/193 194/194/194 195/195/195
f 196/196/196 197/197/197 198/198/198
f 199/199/199 200/200/200 201/201/201
f 202/202/202 203/203/203 204/204/204
f 205/205/205 206/206/206 207/207/207
f 208/208/208 209/209/209 210/210/210
f 211/211/211 212/212/212 213/213/213
f 214/214/214 215/215/215 216/216/216
f 217/217/217 218/218/218 219/219/219
f 220/220/220 221/221/221 222/222/222
f 223/223/223 224/224/224 225/225/225
f 226/226/226 227/227/227 228/228/228
f 229/229/229 230/230/230 231/231/231
f 232/232/232 233/233/233 234/234/234
f 235/235/235 236/236/236 237/237/237
f 238/238/238 239/239/239 240/240/240
f 241/241/241 242/242/242 243/243/243
f 244/244/244 245/245/245 246/246/246
f 247/247/247 248/248/248 249/249/249
f 250/250/250 251/251/251 252/252/252
f 253/253/253 254/254/254 255/255/255
f 256/256/256 257/257/257 258/258/258
f 259/259/259 260/260/260 261/261/261
f 262/262/262 263/263/263 264/264/264
f 265/265/265 266/266/266 267/267/267
f 268/268/268 269/269/269 270/270/270
f 271/271/271 272/272/272 273/273/273
f 274/274/274 275/275/275 276/276/276
