g atlas.png
v -0.0458984 0.106445 -0.161133
v -0.0458984 -0.0273438 -0.0839844
v -0.0458984 0.117188 0.12207
v -0.0458984 0.117188 0.12207
v -0.0458984 0.03125 0.34082
v -0.0458984 0.245117 0.25
v -0.0458984 0.245117 0.0917969
v -0.0458984 0.117188 0.12207
v -0.0458984 0.245117 0.25
v 0.0439453 0.117188 0.12207
v 0.0439453 -0.0273438 -0.0839844
v 0.0439453 0.106445 -0.161133
v 0.0439453 0.245117 0.25
v 0.0439453 0.03125 0.34082
v 0.0439453 0.117188 0.12207
v 0.0439453 0.245117 0.25
v 0.0439453 0.117188 0.12207
v 0.0439453 0.245117 0.0917969
v 0.0439453 0.117188 0.12207
v 0.0439453 0.0546875 0.239258
v 0.0439453 0.0546875 0.125977
v 0.0439453 -0.0273438 -0.0839844
v 0.0439453 0.117188 0.12207
v 0.0439453 -0.0273438 -0.0117188
v 0.0439453 -0.0273438 -0.0117188
v 0.0439453 0.117188 0.12207
v 0.0439453 0.0546875 0.125977
v 0.0439453 0.03125 0.34082
v 0.0439453 -0.0273438 0.286133
v 0.0439453 0.0546875 0.239258
v 0.0439453 0.117188 0.12207
v 0.0439453 0.03125 0.34082
v 0.0439453 0.0546875 0.239258
v -0.0458984 0.117188 0.12207
v -0.0458984 -0.0273438 -0.0839844
v -0.0458984 0.0546875 0.125977
v -0.0458984 -0.0273438 -0.0839844
v -0.0449219 -0.0273438 -0.0117188
v -0.0458984 0.0546875 0.125977
v -0.0458984 0.03125 0.34082
v -0.0458984 0.0546875 0.239258
v -0.0449219 -0.0273438 0.286133
v -0.0458984 0.03125 0.34082
v -0.0458984 0.117188 0.12207
v -0.0458984 0.0546875 0.239258
v -0.0458984 0.117188 0.12207
v -0.0458984 0.0546875 0.125977
v -0.0458984 0.0546875 0.239258
v 0.128906 0.160156 -0.110352
v 0.164063 0.106445 -0.162109
v 0.128906 0.107422 -0.254883
v -0.130859 0.107422 -0.254883
v -0.165039 0.106445 -0.162109
v -0.130859 0.160156 -0.110352
v -0.0458984 0.245117 0.0917969
v -0.09375 0.106445 -0.161133
v -0.0458984 0.117188 0.12207
v 0.0439453 0.245117 0.0917969
v 0.0439453 0.117188 0.12207
v 0.0927734 0.106445 -0.161133
v 0.0439453 -0.0273438 0.286133
v 0.133789 -0.0605469 0.258789
v 0.15332 -0.0263672 0.239258
v 0.15332 -0.0263672 0.125977
v 0.133789 -0.0605469 0.106445
v 0.0439453 -0.0273438 -0.0117188
v 0.15332 -0.0263672 0.239258
v 0.0439453 0.0546875 0.125977
v 0.0439453 0.0546875 0.239258
v 0.0439453 0.0546875 0.125977
v 0.15332 -0.0263672 0.239258
v 0.15332 -0.0263672 0.125977
v 0.0439453 0.0546875 0.125977
v 0.15332 -0.0263672 0.125977
v 0.0439453 -0.0273438 -0.0117188
v 0.15332 -0.0263672 0.239258
v 0.0439453 0.0546875 0.239258
v 0.0439453 -0.0273438 0.286133
v -0.154297 -0.0263672 0.239258
v -0.134766 -0.0605469 0.258789
v -0.0449219 -0.0273438 0.286133
v -0.154297 -0.0263672 0.239258
v -0.0458984 0.0546875 0.125977
v -0.154297 -0.0263672 0.125977
v -0.154297 -0.0263672 0.125977
v -0.0458984 0.0546875 0.125977
v -0.0449219 -0.0273438 -0.0117188
v -0.154297 -0.0263672 0.125977
v -0.0449219 -0.0273438 -0.0117188
v -0.134766 -0.0605469 0.106445
v -0.154297 -0.0263672 0.239258
v -0.0449219 -0.0273438 0.286133
v -0.0458984 0.0546875 0.239258
v -0.0458984 0.0546875 0.239258
v -0.0458984 0.0546875 0.125977
v -0.154297 -0.0263672 0.239258
v 0.15332 -0.0263672 0.239258
v 0.133789 -0.0605469 0.258789
v 0.133789 -0.0605469 0.106445
v 0.15332 -0.0263672 0.125977
v 0.15332 -0.0263672 0.239258
v 0.133789 -0.0605469 0.106445
v -0.134766 -0.0605469 0.106445
v -0.134766 -0.0605469 0.258789
v -0.154297 -0.0263672 0.239258
v -0.134766 -0.0605469 0.106445
v -0.154297 -0.0263672 0.239258
v -0.154297 -0.0263672 0.125977
v -0.0458984 0.245117 0.25
v -0.0458984 0.03125 0.34082
v 0.0439453 0.03125 0.34082
v -0.0458984 0.245117 0.25
v 0.0439453 0.03125 0.34082
v 0.0439453 0.245117 0.25
v -0.15625 0.0605469 0.248047
v -0.22168 0.00585938 -0.0654297
v -0.283203 0.078125 0.170898
v -0.283203 0.078125 0.170898
v -0.22168 0.00585938 -0.0654297
v -0.287109 -0.0478516 0.248047
v -0.189453 0.0332031 0.366211
v -0.15625 0.0605469 0.248047
v -0.283203 0.078125 0.170898
v -0.283203 0.078125 0.170898
v -0.287109 -0.0478516 0.248047
v -0.254883 -0.0205078 0.366211
v -0.254883 -0.0205078 0.366211
v -0.189453 0.0332031 0.366211
v -0.283203 0.078125 0.170898
v 0.282227 0.078125 0.170898
v 0.22168 0.00585938 -0.0654297
v 0.15625 0.0605469 0.248047
v 0.287109 -0.0478516 0.248047
v 0.22168 0.00585938 -0.0654297
v 0.282227 0.078125 0.170898
v 0.282227 0.078125 0.170898
v 0.15625 0.0605469 0.248047
v 0.189453 0.0332031 0.366211
v 0.254883 -0.0205078 0.366211
v 0.287109 -0.0478516 0.248047
v 0.282227 0.078125 0.170898
v 0.282227 0.078125 0.170898
v 0.189453 0.0332031 0.366211
v 0.254883 -0.0205078 0.366211
v -0.0458984 0.104492 -0.430664
v -0.0458984 0.271484 -0.00585938
v 0.0439453 0.271484 -0.00585938
v -0.0458984 0.104492 -0.430664
v 0.0439453 0.271484 -0.00585938
v 0.0439453 0.104492 -0.430664
v -0.09375 0.106445 -0.161133
v -0.0458984 0.271484 -0.00585938
v -0.0458984 0.104492 -0.430664
v 0.0439453 0.104492 -0.430664
v 0.0439453 0.271484 -0.00585938
v 0.0927734 0.106445 -0.161133
v -0.0458984 0.245117 0.0917969
v -0.0458984 0.271484 -0.00585938
v -0.09375 0.106445 -0.161133
v 0.0927734 0.106445 -0.161133
v 0.0439453 0.271484 -0.00585938
v 0.0439453 0.245117 0.0917969
v 0.0439453 0.245117 0.0917969
v 0.0439453 0.271484 -0.00585938
v -0.0458984 0.271484 -0.00585938
v -0.0458984 0.271484 -0.00585938
v -0.0458984 0.245117 0.0917969
v 0.0439453 0.245117 0.0917969
v -0.0458984 -0.0273438 -0.0839844
v -0.0458984 0.106445 -0.161133
v 0.0439453 0.106445 -0.161133
v -0.0458984 -0.0273438 -0.0839844
v 0.0439453 0.106445 -0.161133
v 0.0439453 -0.0273438 -0.0839844
v -0.09375 0.106445 -0.161133
v -0.0458984 0.104492 -0.430664
v 0.0439453 0.104492 -0.430664
v -0.09375 0.106445 -0.161133
v 0.0439453 0.104492 -0.430664
v 0.0927734 0.106445 -0.161133
v -0.0458984 -0.0273438 -0.0839844
v 0.0439453 -0.0273438 -0.0839844
v 0.0439453 -0.0273438 -0.0117188
v 0.0439453 -0.0273438 0.286133
v -0.0449219 -0.0273438 0.286133
v 0.0439453 -0.0273438 -0.0117188
v -0.0449219 -0.0273438 -0.0117188
v 0.0439453 -0.0273438 -0.0117188
v -0.0449219 -0.0273438 0.286133
v -0.0458984 -0.0273438 -0.0839844
v 0.0439453 -0.0273438 -0.0117188
v -0.0449219 -0.0273438 -0.0117188
v -0.0458984 0.117188 0.12207
v -0.09375 0.106445 -0.161133
v -0.0458984 0.106445 -0.161133
v 0.0439453 0.106445 -0.161133
v 0.0927734 0.106445 -0.161133
v 0.0439453 0.117188 0.12207
v 0.0439453 -0.0273438 0.286133
v 0.0439453 0.03125 0.34082
v -0.0458984 0.03125 0.34082
v 0.0439453 -0.0273438 0.286133
v -0.0458984 0.03125 0.34082
v -0.0449219 -0.0273438 0.286133
v 0.0927734 0.106445 -0.161133
v 0.164063 0.106445 -0.162109
v 0.128906 0.160156 -0.110352
v 0.128906 0.160156 -0.110352
v 0.0761719 0.160156 -0.110352
v 0.0927734 0.106445 -0.161133
v -0.09375 0.106445 -0.161133
v -0.078125 0.160156 -0.110352
v -0.130859 0.160156 -0.110352
v -0.130859 0.160156 -0.110352
v -0.165039 0.106445 -0.162109
v -0.09375 0.106445 -0.161133
v 0.0742188 0.107422 -0.254883
v 0.0761719 0.160156 -0.110352
v 0.128906 0.160156 -0.110352
v 0.128906 0.107422 -0.254883
v 0.0742188 0.107422 -0.254883
v 0.128906 0.160156 -0.110352
v -0.130859 0.160156 -0.110352
v -0.078125 0.160156 -0.110352
v -0.0751953 0.107422 -0.254883
v -0.130859 0.160156 -0.110352
v -0.0751953 0.107422 -0.254883
v -0.130859 0.107422 -0.254883
v 0.0927734 0.106445 -0.161133
v 0.0742188 0.107422 -0.254883
v 0.128906 0.107422 -0.254883
v 0.164063 0.106445 -0.162109
v 0.0927734 0.106445 -0.161133
v 0.128906 0.107422 -0.254883
v -0.130859 0.107422 -0.254883
v -0.0751953 0.107422 -0.254883
v -0.09375 0.106445 -0.161133
v -0.130859 0.107422 -0.254883
v -0.09375 0.106445 -0.161133
v -0.165039 0.106445 -0.162109
v 0.133789 -0.0605469 0.258789
v 0.0439453 -0.0273438 0.286133
v 0.133789 -0.0605469 0.106445
v 0.0439453 -0.0273438 -0.0117188
v 0.133789 -0.0605469 0.106445
v 0.0439453 -0.0273438 0.286133
v -0.134766 -0.0605469 0.106445
v -0.0449219 -0.0273438 0.286133
v -0.134766 -0.0605469 0.258789
v -0.0449219 -0.0273438 -0.0117188
v -0.0449219 -0.0273438 0.286133
v -0.134766 -0.0605469 0.106445
v -0.22168 0.00585938 -0.0654297
v -0.15625 0.0605469 0.248047
v -0.287109 -0.0478516 0.248047
v -0.254883 -0.0205078 0.366211
v -0.287109 -0.0478516 0.248047
v -0.15625 0.0605469 0.248047
v -0.15625 0.0605469 0.248047
v -0.189453 0.0332031 0.366211
v -0.254883 -0.0205078 0.366211
v -0.0458984 0.245117 0.0917969
v -0.0458984 0.245117 0.25
v 0.0439453 0.245117 0.25
v -0.0458984 0.245117 0.0917969
v 0.0439453 0.245117 0.25
v 0.0439453 0.245117 0.0917969
v 0.287109 -0.0478516 0.248047
v 0.15625 0.0605469 0.248047
v 0.22168 0.00585938 -0.0654297
v 0.15625 0.0605469 0.248047
v 0.287109 -0.0478516 0.248047
v 0.254883 -0.0205078 0.366211
v 0.254883 -0.0205078 0.366211
v 0.189453 0.0332031 0.366211
v 0.15625 0.0605469 0.248047
vt 0.164063 0.123698
vt 0.195313 0.0846354
vt 0.28125 0.126302
vt 0.28125 0.126302
vt 0.371094 0.101563
vt 0.332031 0.16276
vt 0.265625 0.16276
vt 0.28125 0.126302
vt 0.332031 0.16276
vt 0.28125 0.126302
vt 0.195313 0.0846354
vt 0.164063 0.123698
vt 0.332031 0.16276
vt 0.371094 0.101563
vt 0.28125 0.126302
vt 0.332031 0.16276
vt 0.28125 0.126302
vt 0.265625 0.16276
vt 0.28125 0.126302
vt 0.328125 0.108073
vt 0.28125 0.108073
vt 0.195313 0.0846354
vt 0.28125 0.126302
vt 0.226563 0.0846354
vt 0.226563 0.0846354
vt 0.28125 0.126302
vt 0.28125 0.108073
vt 0.371094 0.101563
vt 0.347656 0.0846354
vt 0.328125 0.108073
vt 0.28125 0.126302
vt 0.371094 0.101563
vt 0.328125 0.108073
vt 0.28125 0.126302
vt 0.195313 0.0846354
vt 0.28125 0.108073
vt 0.195313 0.0846354
vt 0.226563 0.0846354
vt 0.28125 0.108073
vt 0.371094 0.101563
vt 0.328125 0.108073
vt 0.347656 0.0846354
vt 0.371094 0.101563
vt 0.28125 0.126302
vt 0.328125 0.108073
vt 0.28125 0.126302
vt 0.28125 0.108073
vt 0.328125 0.108073
vt 0.183594 0.139323
vt 0.164063 0.123698
vt 0.125 0.123698
vt 0.125 0.123698
vt 0.164063 0.123698
vt 0.183594 0.139323
vt 0.265625 0.16276
vt 0.164063 0.123698
vt 0.28125 0.126302
vt 0.265625 0.16276
vt 0.28125 0.126302
vt 0.164063 0.123698
vt 0.214844 0.246094
vt 0.144531 0.238281
vt 0.132813 0.233073
vt 0.132813 0.204427
vt 0.144531 0.199219
vt 0.214844 0.167969
vt 0.132813 0.233073
vt 0.214844 0.204427
vt 0.214844 0.233073
vt 0.214844 0.204427
vt 0.132813 0.233073
vt 0.132813 0.204427
vt 0.214844 0.204427
vt 0.132813 0.204427
vt 0.214844 0.167969
vt 0.132813 0.233073
vt 0.214844 0.233073
vt 0.214844 0.246094
vt 0.363281 0.233073
vt 0.347656 0.238281
vt 0.28125 0.246094
vt 0.363281 0.233073
vt 0.28125 0.204427
vt 0.363281 0.204427
vt 0.363281 0.204427
vt 0.28125 0.204427
vt 0.28125 0.167969
vt 0.363281 0.204427
vt 0.28125 0.167969
vt 0.347656 0.199219
vt 0.363281 0.233073
vt 0.28125 0.246094
vt 0.28125 0.233073
vt 0.28125 0.233073
vt 0.28125 0.204427
vt 0.363281 0.233073
vt 0.238281 0.00520833
vt 0.132813 0
vt 0.132813 0.0403646
vt 0.238281 0.0351563
vt 0.238281 0.00520833
vt 0.132813 0.0403646
vt 0.132813 0.0403646
vt 0.132813 0
vt 0.238281 0.00520833
vt 0.132813 0.0403646
vt 0.238281 0.00520833
vt 0.238281 0.0351563
vt 0 0.0403646
vt 0 0
vt 0.121094 0
vt 0 0.0403646
vt 0.121094 0
vt 0.121094 0.0403646
vt 0.363281 0.105469
vt 0.25 0.164063
vt 0.25 0.119792
vt 0.25 0.119792
vt 0.25 0.164063
vt 0.132813 0.105469
vt 0.304688 0.0846354
vt 0.363281 0.105469
vt 0.25 0.119792
vt 0.25 0.119792
vt 0.132813 0.105469
vt 0.191406 0.0846354
vt 0.0078125 0.00130208
vt 0.117188 0.00130208
vt 0.0625 0.0390625
vt 0.257813 0.125
vt 0.125 0.125
vt 0.304688 0.0859375
vt 0.304688 0.164063
vt 0.125 0.125
vt 0.257813 0.125
vt 0.257813 0.125
vt 0.304688 0.0859375
vt 0.367188 0.105469
vt 0.367188 0.144531
vt 0.304688 0.164063
vt 0.257813 0.125
vt 0.0625 0.0390625
vt 0.117188 0.00130208
vt 0.0078125 0.00130208
vt 0.117188 0.136719
vt 0.117188 0.217448
vt 0.00390625 0.217448
vt 0.117188 0.136719
vt 0.00390625 0.217448
vt 0.00390625 0.136719
vt 0.0625 0.136719
vt 0.0976563 0.216146
vt 0 0.135417
vt 0 0.135417
vt 0.0976563 0.216146
vt 0.0625 0.136719
vt 0.121094 0.203125
vt 0.0976563 0.216146
vt 0.0625 0.136719
vt 0.0625 0.136719
vt 0.0976563 0.216146
vt 0.121094 0.203125
vt 0.00390625 0.214844
vt 0.00390625 0.138021
vt 0.117188 0.138021
vt 0.117188 0.138021
vt 0.117188 0.214844
vt 0.00390625 0.214844
vt 0.121094 0.0611979
vt 0.121094 0.101563
vt 0 0.101563
vt 0.121094 0.0611979
vt 0 0.101563
vt 0 0.0611979
vt 0.132813 0.364583
vt 0.191406 0.334635
vt 0.300781 0.334635
vt 0.132813 0.364583
vt 0.300781 0.334635
vt 0.355469 0.364583
vt 0.191406 0.373698
vt 0.300781 0.373698
vt 0.300781 0.38151
vt 0.300781 0.414063
vt 0.191406 0.414063
vt 0.300781 0.38151
vt 0.191406 0.38151
vt 0.300781 0.38151
vt 0.191406 0.414063
vt 0.191406 0.373698
vt 0.300781 0.38151
vt 0.191406 0.38151
vt 0.191406 0.395833
vt 0.132813 0.364583
vt 0.191406 0.364583
vt 0.300781 0.364583
vt 0.355469 0.364583
vt 0.300781 0.395833
vt 0.121094 0.0117188
vt 0.121094 0.0403646
vt 0 0.0403646
vt 0.121094 0.0117188
vt 0 0.0403646
vt 0 0.0117188
vt 0.09375 0.144531
vt 0.121094 0.144531
vt 0.109375 0.209635
vt 0.109375 0.209635
vt 0.0898438 0.209635
vt 0.09375 0.144531
vt 0.0273438 0.144531
vt 0.03125 0.209635
vt 0.0117188 0.209635
vt 0.0117188 0.209635
vt 0 0.144531
vt 0.0273438 0.144531
vt 0.179688 0.0885417
vt 0.179688 0.161458
vt 0.132813 0.161458
vt 0.132813 0.0885417
vt 0.179688 0.0885417
vt 0.132813 0.161458
vt 0.367188 0.161458
vt 0.320313 0.161458
vt 0.316406 0.0885417
vt 0.367188 0.161458
vt 0.316406 0.0885417
vt 0.367188 0.0885417
vt 0.9375 0.393229
vt 0.921875 0.326823
vt 0.964844 0.326823
vt 0.988281 0.393229
vt 0.9375 0.393229
vt 0.964844 0.326823
vt 0.773438 0.326823
vt 0.816406 0.326823
vt 0.800781 0.393229
vt 0.773438 0.326823
vt 0.800781 0.393229
vt 0.75 0.393229
vt 0.765625 0.473958
vt 0.835938 0.481771
vt 0.765625 0.434896
vt 0.835938 0.403646
vt 0.765625 0.434896
vt 0.835938 0.481771
vt 0.96875 0.434896
vt 0.902344 0.481771
vt 0.96875 0.473958
vt 0.902344 0.403646
vt 0.902344 0.481771
vt 0.96875 0.434896
vt 0.871094 0.39974
vt 0.984375 0.341146
vt 0.753906 0.341146
vt 0.8125 0.320313
vt 0.753906 0.341146
vt 0.984375 0.341146
vt 0.984375 0.341146
vt 0.925781 0.320313
vt 0.8125 0.320313
vt 0.382813 0.580729
vt 0.382813 0.501302
vt 0.613281 0.501302
vt 0.382813 0.580729
vt 0.613281 0.501302
vt 0.613281 0.580729
vt 0.925781 0.39974
vt 0.925781 0.321615
vt 0.746094 0.360677
vt 0.925781 0.321615
vt 0.925781 0.39974
vt 0.988281 0.380208
vt 0.988281 0.380208
vt 0.988281 0.341146
vt 0.925781 0.321615
vn -1 0 0
vn -1 0 0
vn -1 0 0
vn -1 0 0
vn -1 0 0
vn -1 0 0
vn -1 0 0
vn -1 0 0
vn -1 0 0
vn 1 0 0
vn 1 0 0
vn 1 0 0
vn 1 0 0
vn 1 0 0
vn 1 0 0
vn 1 0 0
vn 1 0 0
vn 1 0 0
vn 1 0 0
vn 1 0 0
vn 1 0 0
vn 1 0 0
vn 1 0 0
vn 1 0 0
vn 1 0 0
vn 1 0 0
vn 1 0 0
vn 1 0 0
vn 1 0 0
vn 1 0 0
vn 1 0 0
vn 1 0 0
vn 1 0 0
vn -1 -0 0
vn -1 -0 0
vn -1 -0 0
vn -0.999311 -0.0345643 0.0135042
vn -0.999311 -0.0345643 0.0135042
vn -0.999311 -0.0345643 0.0135042
vn -0.999901 -0.0137117 -0.00316424
vn -0.999901 -0.0137117 -0.00316424
vn -0.999901 -0.0137117 -0.00316424
vn -1 0 0
vn -1 0 0
vn -1 0 0
vn -1 0 0
vn -1 0 0
vn -1 0 0
vn 0.681251 0.687704 -0.250919
vn 0.681251 0.687704 -0.250919
vn 0.681251 0.687704 -0.250919
vn -0.691477 0.678638 -0.247611
vn -0.691477 0.678638 -0.247611
vn -0.691477 0.678638 -0.247611
vn -0.985514 0.0390544 0.165036
vn -0.985514 0.0390544 0.165036
vn -0.985514 0.0390544 0.165036
vn 0.98493 0.0398279 0.168305
vn 0.98493 0.0398279 0.168305
vn 0.98493 0.0398279 0.168305
vn 0.374918 0.289093 0.88083
vn 0.374918 0.289093 0.88083
vn 0.374918 0.289093 0.88083
vn 0.780025 -0.0920477 -0.618941
vn 0.780025 -0.0920477 -0.618941
vn 0.780025 -0.0920477 -0.618941
vn 0.595399 0.80343 0
vn 0.595399 0.80343 0
vn 0.595399 0.80343 0
vn 0.595399 0.80343 0
vn 0.595399 0.80343 0
vn 0.595399 0.80343 0
vn 0.537051 0.724695 -0.431733
vn 0.537051 0.724695 -0.431733
vn 0.537051 0.724695 -0.431733
vn 0.345088 0.465661 0.814907
vn 0.345088 0.465661 0.814907
vn 0.345088 0.465661 0.814907
vn -0.374918 0.289093 0.88083
vn -0.374918 0.289093 0.88083
vn -0.374918 0.289093 0.88083
vn -0.598845 0.800865 0
vn -0.598845 0.800865 0
vn -0.598845 0.800865 0
vn -0.539586 0.721615 -0.433725
vn -0.539586 0.721615 -0.433725
vn -0.539586 0.721615 -0.433725
vn -0.780025 -0.0920477 -0.618941
vn -0.780025 -0.0920477 -0.618941
vn -0.780025 -0.0920477 -0.618941
vn -0.34578 0.462428 0.816453
vn -0.34578 0.462428 0.816453
vn -0.34578 0.462428 0.816453
vn -0.598845 0.800865 0
vn -0.598845 0.800865 0
vn -0.598845 0.800865 0
vn 0.868243 -0.496139 0
vn 0.868243 -0.496139 0
vn 0.868243 -0.496139 0
vn 0.868243 -0.496139 0
vn 0.868243 -0.496139 0
vn 0.868243 -0.496139 0
vn -0.868243 -0.496139 0
vn -0.868243 -0.496139 0
vn -0.868243 -0.496139 0
vn -0.868243 -0.496139 0
vn -0.868243 -0.496139 0
vn -0.868243 -0.496139 0
vn 0 0.390874 0.920444
vn 0 0.390874 0.920444
vn 0 0.390874 0.920444
vn -0 0.390874 0.920444
vn -0 0.390874 0.920444
vn -0 0.390874 0.920444
vn 0.263086 0.939626 -0.218834
vn 0.263086 0.939626 -0.218834
vn 0.263086 0.939626 -0.218834
vn -0.969757 -0.104893 -0.220383
vn -0.969757 -0.104893 -0.220383
vn -0.969757 -0.104893 -0.220383
vn -0.00179889 0.974365 0.224967
vn -0.00179889 0.974365 0.224967
vn -0.00179889 0.974365 0.224967
vn -0.960393 0.166577 0.223378
vn -0.960393 0.166577 0.223378
vn -0.960393 0.166577 0.223378
vn -0.57149 0.696179 0.434436
vn -0.57149 0.696179 0.434436
vn -0.57149 0.696179 0.434436
vn -0.265232 0.938946 -0.219164
vn -0.265232 0.938946 -0.219164
vn -0.265232 0.938946 -0.219164
vn 0.970886 -0.0966066 -0.219198
vn 0.970886 -0.0966066 -0.219198
vn 0.970886 -0.0966066 -0.219198
vn 0.00181079 0.974365 0.224964
vn 0.00181079 0.974365 0.224964
vn 0.00181079 0.974365 0.224964
vn 0.959653 0.172965 0.221699
vn 0.959653 0.172965 0.221699
vn 0.959653 0.172965 0.221699
vn 0.572198 0.697042 0.432114
vn 0.572198 0.697042 0.432114
vn 0.572198 0.697042 0.432114
vn 0 0.930674 -0.365851
vn 0 0.930674 -0.365851
vn 0 0.930674 -0.365851
vn 0 0.930674 -0.365851
vn 0 0.930674 -0.365851
vn 0 0.930674 -0.365851
vn -0.896432 0.412456 -0.162138
vn -0.896432 0.412456 -0.162138
vn -0.896432 0.412456 -0.162138
vn 0.892824 0.41918 -0.164781
vn 0.892824 0.41918 -0.164781
vn 0.892824 0.41918 -0.164781
vn -0.9725 0.22485 0.0607096
vn -0.9725 0.22485 0.0607096
vn -0.9725 0.22485 0.0607096
vn 0.971415 0.229183 0.0618794
vn 0.971415 0.229183 0.0618794
vn 0.971415 0.229183 0.0618794
vn 0 0.965429 0.260666
vn 0 0.965429 0.260666
vn 0 0.965429 0.260666
vn 0 0.965429 0.260666
vn 0 0.965429 0.260666
vn 0 0.965429 0.260666
vn 0 -0.49954 -0.866291
vn 0 -0.49954 -0.866291
vn 0 -0.49954 -0.866291
vn 0 -0.49954 -0.866291
vn 0 -0.49954 -0.866291
vn 0 -0.49954 -0.866291
vn 0 -0.999974 0.00724619
vn 0 -0.999974 0.00724619
vn 0 -0.999974 0.00724619
vn 0 -0.999974 0.00724619
vn 0 -0.999974 0.00724619
vn 0 -0.999974 0.00724619
vn 0 -1 0
vn 0 -1 0
vn 0 -1 0
vn -0 -1 -0
vn -0 -1 -0
vn -0 -1 -0
vn 0 -1 0
vn 0 -1 0
vn 0 -1 0
vn 0 -1 0
vn 0 -1 0
vn 0 -1 0
vn 0 -0.999281 0.0379038
vn 0 -0.999281 0.0379038
vn 0 -0.999281 0.0379038
vn 0 -0.999281 0.0379038
vn 0 -0.999281 0.0379038
vn 0 -0.999281 0.0379038
vn 0 -0.682318 0.731055
vn 0 -0.682318 0.731055
vn 0 -0.682318 0.731055
vn 0 -0.682318 0.731055
vn 0 -0.682318 0.731055
vn 0 -0.682318 0.731055
vn 0.00990788 -0.690489 0.723275
vn 0.00990788 -0.690489 0.723275
vn 0.00990788 -0.690489 0.723275
vn 0 -0.687011 0.726647
vn 0 -0.687011 0.726647
vn 0 -0.687011 0.726647
vn 0 -0.687011 0.726647
vn 0 -0.687011 0.726647
vn 0 -0.687011 0.726647
vn -0.00990664 -0.690583 0.723185
vn -0.00990664 -0.690583 0.723185
vn -0.00990664 -0.690583 0.723185
vn 0 0.939422 -0.342762
vn 0 0.939422 -0.342762
vn 0 0.939422 -0.342762
vn 0 0.939422 -0.342762
vn 0 0.939422 -0.342762
vn 0 0.939422 -0.342762
vn 0 0.939422 -0.342762
vn 0 0.939422 -0.342762
vn 0 0.939422 -0.342762
vn 0 0.939422 -0.342762
vn 0 0.939422 -0.342762
vn 0 0.939422 -0.342762
vn 0 -0.999946 -0.0104161
vn 0 -0.999946 -0.0104161
vn 0 -0.999946 -0.0104161
vn -0.000143444 -0.999945 -0.0104714
vn -0.000143444 -0.999945 -0.0104714
vn -0.000143444 -0.999945 -0.0104714
vn 0 -0.999946 -0.0104161
vn 0 -0.999946 -0.0104161
vn 0 -0.999946 -0.0104161
vn 0.000143464 -0.999945 -0.0104729
vn 0.000143464 -0.999945 -0.0104729
vn 0.000143464 -0.999945 -0.0104729
vn -0.34665 -0.937994 -0
vn -0.34665 -0.937994 -0
vn -0.34665 -0.937994 -0
vn -0.34665 -0.937995 0
vn -0.34665 -0.937995 0
vn -0.34665 -0.937995 0
vn 0.34665 -0.937994 0
vn 0.34665 -0.937994 0
vn 0.34665 -0.937994 0
vn 0.34665 -0.937995 0
vn 0.34665 -0.937995 0
vn 0.34665 -0.937995 0
vn 0.63792 -0.770102 0.00119954
vn 0.63792 -0.770102 0.00119954
vn 0.63792 -0.770102 0.00119954
vn 0.637915 -0.770095 0.00422712
vn 0.637915 -0.770095 0.00422712
vn 0.637915 -0.770095 0.00422712
vn 0.634493 -0.772928 -0.000572045
vn 0.634493 -0.772928 -0.000572045
vn 0.634493 -0.772928 -0.000572045
vn 0 1 0
vn 0 1 0
vn 0 1 0
vn 0 1 0
vn 0 1 0
vn 0 1 0
vn -0.63792 -0.770102 0.00119954
vn -0.63792 -0.770102 0.00119954
vn -0.63792 -0.770102 0.00119954
vn -0.637915 -0.770095 0.00422712
vn -0.637915 -0.770095 0.00422712
vn -0.637915 -0.770095 0.00422712
vn -0.634493 -0.772928 -0.000572045
vn -0.634493 -0.772928 -0.000572045
vn -0.634493 -0.772928 -0.000572045
f 1/1/1 2/2/2 3/3/3
f 4/4/4 5/5/5 6/6/6
f 7/7/7 8/8/8 9/9/9
f 10/10/10 11/11/11 12/12/12
f 13/13/13 14/14/14 15/15/15
f 16/16/16 17/17/17 18/18/18
f 19/19/19 20/20/20 21/21/21
f 22/22/22 23/23/23 24/24/24
f 25/25/25 26/26/26 27/27/27
f 28/28/28 29/29/29 30/30/30
f 31/31/31 32/32/32 33/33/33
f 34/34/34 35/35/35 36/36/36
f 37/37/37 38/38/38 39/39/39
f 40/40/40 41/41/41 42/42/42
f 43/43/43 44/44/44 45/45/45
f 46/46/46 47/47/47 48/48/48
f 49/49/49 50/50/50 51/51/51
f 52/52/52 53/53/53 54/54/54
f 55/55/55 56/56/56 57/57/57
f 58/58/58 59/59/59 60/60/60
f 61/61/61 62/62/62 63/63/63
f 64/64/64 65/65/65 66/66/66
f 67/67/67 68/68/68 69/69/69
f 70/70/70 71/71/71 72/72/72
f 73/73/73 74/74/74 75/75/75
f 76/76/76 77/77/77 78/78/78
f 79/79/79 80/80/80 81/81/81
f 82/82/82 83/83/83 84/84/84
f 85/85/85 86/86/86 87/87/87
f 88/88/88 89/89/89 90/90/90
f 91/91/91 92/92/92 93/93/93
f 94/94/94 95/95/95 96/96/96
f 97/97/97 98/98/98 99/99/99
f 100/100/100 101/101/101 102/102/102
f 103/103/103 104/104/104 105/105/105
f 106/106/106 107/107/107 108/108/108
f 109/109/109 110/110/110 111/111/111
f 112/112/112 113/113/113 114/114/114
f 115/115/115 116/116/116 117/117/117
f 118/118/118 119/119/119 120/120/120
f 121/121/121 122/122/122 123/123/123
f 124/124/124 125/125/125 126/126/126
f 127/127/127 128/128/128 129/129/129
f 130/130/130 131/131/131 132/132/132
f 133/133/133 134/134/134 135/135/135
f 136/136/136 137/137/137 138/138/138
f 139/139/139 140/140/140 141/141/141
f 142/142/142 143/143/143 144/144/144
f 145/145/145 146/146/146 147/147/147
f 148/148/148 149/149/149 150/150/150
f 151/151/151 152/152/152 153/153/153
f 154/154/154 155/155/155 156/156/156
f 157/157/157 158/158/158 159/159/159
f 160/160/160 161/161/161 162/162/162
f 163/163/163 164/164/164 165/165/165
f 166/166/166 167/167/167 168/168/168
f 169/169/169 170/170/170 171/171/171
f 172/172/172 173/173/173 174/174/174
f 175/175/175 176/176/176 177/177/177
f 178/178/178 179/179/179 180/180/180
f 181/181/181 182/182/182 183/183/183
f 184/184/184 185/185/185 186/186/186
f 187/187/187 188/188/188 189/189/189
f 190/190/190 191/191/191 192/192/192
f 193/193/193 194/194/194 195/195/195
f 196/196/196 197/197/197 198/198/198
f 199/199/199 200/200/200 201/201/201
f 202/202/202 203/203/203 204/204/204
f 205/205/205 206/206/206 207/207/207
f 208/208/208 209/209/209 210/210/210
f 211/211/211 212/212/212 213/213/213
f 214/214/214 215/215/215 216/216/216
f 217/217/217 218/218/218 219/219/219
f 220/220/220 221/221/221 222/222/222
f 223/223/223 224/224/224 225/225/225
f 226/226/226 227/227/227 228/228/228
f 229/229/229 230/230/230 231/231/231
f 232/232/232 233/233/233 234/234/234
f 235/235/235 236/236/236 237/237/237
f 238/238/238 239/239/239 240/240/240
f 241/241/241 242/242/242 243/243/243
f 244/244/244 245/245/245 246/246/246
f 247/247/247 248/248/248 249/249/249
f 250/250/250 251/251/251 252/252/252
f 253/253/253 254/254/254 255/255/255
f 256/256/256 257/257/257 258/258/258
f 259/259/259 260/260/260 261/261/261
f 262/262/262 263/263/263 264/264/264
f 265/265/265 266/266/266 267/267/267
f 268/268/268 269/269/269 270/270/270
f 271/271/271 272/272/272 273/273/273
f 274/274/274 275/275/275 276/276/276
