g atlas.png
v -0.0292969 -0.0507813 0.685547
v 0.181641 -0.0507813 0.615234
v -0.170898 -0.0507813 0.615234
v -0.206055 0.0605469 -0.478516
v -0.206055 0.0605469 -0.584961
v -0.276367 0.0605469 -0.691406
v -0.0644531 0.0351563 -0.761719
v -0.0996094 0.0351563 -0.691406
v 0.00488281 0 -0.584961
v 0.288086 0.0507813 -0.337891
v 0.288086 0.0507813 -0.443359
v 0.216797 0 -0.514648
v -0.170898 0.0605469 -0.514648
v 0.00488281 0 -0.584961
v -0.206055 0.0605469 -0.584961
v 0.00488281 0 -0.584961
v -0.170898 0.0605469 -0.514648
v 0.00390625 0 -0.514648
v 0.216797 0 -0.514648
v 0.00488281 0 -0.584961
v 0.111328 0 -0.514648
v 0.216797 0 -0.514648
v 0.111328 0 -0.514648
v 0.288086 0.0507813 -0.337891
v -0.276367 0.0605469 -0.691406
v -0.206055 0.0605469 -0.584961
v -0.206055 0.0605469 -0.655273
v -0.170898 -0.0507813 0.615234
v -0.276367 -0.0507813 0.650391
v -0.241211 -0.0507813 0.685547
v -0.170898 -0.0507813 0.615234
v -0.241211 -0.0507813 0.685547
v -0.0292969 -0.0507813 0.685547
v -0.276367 -0.0507813 0.650391
v -0.170898 -0.0507813 0.615234
v -0.206055 -0.0507813 0.580078
v -0.276367 0 0.473633
v -0.276367 -0.0507813 0.650391
v -0.206055 -0.0507813 0.580078
v -0.206055 0 0.474609
v -0.276367 0 0.296875
v -0.276367 0 0.473633
v -0.206055 0.0605469 -0.761719
v -0.276367 0.0605469 -0.691406
v -0.206055 0.0605469 -0.655273
v -0.206055 0.0605469 -0.761719
v -0.206055 0.0605469 -0.655273
v -0.170898 0.0605469 -0.691406
v -0.0644531 0.0351563 -0.761719
v -0.206055 0.0605469 -0.761719
v -0.170898 0.0605469 -0.691406
v -0.0644531 0.0351563 -0.761719
v -0.170898 0.0605469 -0.691406
v -0.0996094 0.0351563 -0.691406
v 0.00488281 0 -0.584961
v 0.111328 0 -0.584961
v 0.0537109 0 -0.642578
v 0.00488281 0 -0.584961
v 0.216797 0 -0.514648
v 0.111328 0 -0.584961
v 0.111328 0 -0.584961
v 0.216797 0 -0.514648
v 0.251953 0.0507813 -0.514648
v 0.251953 0.0507813 -0.514648
v 0.358398 0.0507813 -0.584961
v 0.25293 0.0507813 -0.584961
v 0.358398 0.0507813 -0.584961
v 0.251953 0.0507813 -0.514648
v 0.288086 0.0507813 -0.478516
v 0.288086 0.0507813 -0.443359
v 0.288086 0.0507813 -0.337891
v 0.358398 0.0507813 -0.266602
v 0.358398 0.0507813 -0.266602
v 0.358398 0.0507813 -0.584961
v 0.288086 0.0507813 -0.478516
v 0.288086 0.0507813 -0.478516
v 0.288086 0.0507813 -0.443359
v 0.358398 0.0507813 -0.266602
v 0.358398 0.0507813 -0.266602
v 0.288086 0.0507813 -0.337891
v 0.288086 0.0507813 -0.302734
v 0.111328 0 -0.125977
v 0.0761719 0 0.0146484
v 0.150391 0 -0.0771484
v 0.150391 0 -0.0771484
v 0.288086 0.0507813 -0.302734
v 0.111328 0 -0.125977
v 0.0761719 0 0.0146484
v 0.111328 0 -0.125977
v -0.0292969 0 -0.125977
v 0.0761719 0 0.0146484
v -0.0292969 0 -0.125977
v -0.0292969 0 0.0849609
v 0.0761719 0 0.0849609
v 0.0761719 0 0.0146484
v -0.0292969 0 0.0849609
v 0.0761719 0 0.0849609
v -0.0292969 0 0.0849609
v 0.251953 0 0.508789
v 0.323242 0 0.473633
v 0.0761719 0 0.0849609
v 0.251953 0 0.508789
v 0.323242 -0.0507813 0.580078
v 0.323242 0 0.473633
v 0.251953 0 0.508789
v 0.323242 -0.0507813 0.580078
v 0.251953 0 0.508789
v 0.251953 -0.0507813 0.544922
v 0.216797 -0.0507813 0.685547
v 0.323242 -0.0507813 0.580078
v 0.251953 -0.0507813 0.544922
v 0.216797 -0.0507813 0.685547
v 0.251953 -0.0507813 0.544922
v 0.181641 -0.0507813 0.615234
v 0.0761719 -0.0507813 0.685547
v 0.216797 -0.0507813 0.685547
v 0.181641 -0.0507813 0.615234
v 0.0761719 -0.0507813 0.685547
v 0.181641 -0.0507813 0.615234
v -0.0292969 -0.0507813 0.685547
v -0.0292969 0 0.685547
v -0.0996094 0 0.791992
v 0.0761719 0 0.685547
v 0.0761719 0 0.685547
v -0.0292969 -0.0507813 0.685547
v -0.0292969 0 0.685547
v -0.276367 0 0.720703
v -0.382813 0 0.791992
v -0.0996094 0 0.791992
v -0.0996094 0 0.791992
v -0.0996094 0 0.720703
v -0.276367 0 0.720703
v -0.382813 0 0.791992
v -0.276367 0 0.720703
v -0.311523 0 0.685547
v -0.382813 0 0.508789
v -0.382813 0 0.791992
v -0.311523 0 0.685547
v -0.382813 0 0.508789
v -0.311523 0 0.685547
v -0.311523 0 0.580078
v -0.276367 0 0.473633
v -0.276367 0 0.296875
v -0.382813 0 0.508789
v -0.382813 0 0.508789
v -0.311523 0 0.580078
v -0.276367 0 0.473633
v -0.276367 0 0.473633
v -0.206055 -0.0507813 0.580078
v -0.206055 0 0.474609
v -0.276367 0.0605469 -0.691406
v -0.276367 0.0605469 -0.477539
v -0.206055 0.0605469 -0.478516
v -0.170898 0.0605469 -0.514648
v -0.206055 0.0605469 -0.584961
v -0.206055 0.0605469 -0.478516
v -0.276367 0.0605469 -0.477539
v -0.276367 -0.0429688 -0.239258
v -0.206055 0.0605469 -0.478516
v -0.206055 0 0.00585938
v -0.206055 -0.0429688 -0.236328
v -0.276367 0 0.00585938
v -0.276367 0 0.00585938
v -0.276367 0 0.296875
v -0.206055 0 0.00585938
v -0.206055 -0.0429688 -0.236328
v -0.206055 0.0605469 -0.478516
v -0.276367 -0.0429688 -0.239258
v -0.276367 -0.0429688 -0.239258
v -0.276367 0 0.00585938
v -0.206055 -0.0429688 -0.236328
v -0.206055 0 0.474609
v -0.206055 0 0.00585938
v -0.276367 0 0.296875
v 0.00488281 0 -0.584961
v 0.00390625 0 -0.514648
v 0.111328 0 -0.514648
v 0.00488281 0 -0.584961
v 0.0537109 0 -0.642578
v -0.0644531 0.0351563 -0.761719
v -0.0996094 0 0.791992
v -0.0292969 0 0.685547
v -0.0996094 0 0.720703
v 0.0761719 0 0.685547
v 0.0761719 -0.0507813 0.685547
v -0.0292969 -0.0507813 0.685547
v 0.150391 0 -0.0771484
v 0.358398 0.0507813 -0.266602
v 0.288086 0.0507813 -0.302734
v 0.251953 0.0507813 -0.514648
v 0.25293 0.0507813 -0.584961
v 0.111328 0 -0.584961
v 0.0761719 -0.0507813 0.685547
v 0.0761719 0 0.685547
v -0.0996094 0 0.791992
v -0.276367 0 0.473633
v -0.311523 0 0.580078
v -0.311523 0 0.685547
v -0.0996094 0 0.720703
v -0.0292969 0 0.685547
v -0.0292969 -0.0507813 0.685547
v -0.276367 0 0.296875
v -0.276367 0 0.00585938
v -0.276367 -0.0429688 -0.239258
v -0.276367 -0.0429688 -0.239258
v -0.276367 0.0605469 -0.477539
v -0.276367 0.0605469 -0.691406
v -0.206055 -0.0429688 -0.236328
v -0.206055 0 0.00585938
v -0.206055 0 0.474609
v -0.170898 0.0605469 -0.514648
v -0.206055 0.0605469 -0.478516
v -0.206055 -0.0429688 -0.236328
v -0.0996094 0.0351563 -0.691406
v -0.170898 0.0605469 -0.691406
v -0.206055 0.0605469 -0.655273
v 0.111328 0 -0.584961
v 0.25293 0.0507813 -0.584961
v 0.358398 0.0507813 -0.584961
v 0.288086 0.0507813 -0.478516
v 0.251953 0.0507813 -0.514648
v 0.216797 0 -0.514648
v 0.111328 0 -0.125977
v 0.288086 0.0507813 -0.302734
v 0.288086 0.0507813 -0.337891
v 0.251953 -0.0507813 0.544922
v 0.251953 0 0.508789
v -0.0292969 0 0.0849609
v 0.0761719 0 0.0849609
v 0.323242 0 0.473633
v 0.323242 -0.0507813 0.580078
v 0.288086 0.0507813 -0.443359
v 0.288086 0.0507813 -0.478516
v 0.216797 0 -0.514648
vt 0.5 0.242188
vt 0.433594 0.238281
vt 0.546875 0.238281
vt 0.558594 0.182292
vt 0.558594 0.177083
vt 0.578125 0.170573
vt 0.511719 0.167969
vt 0.523438 0.170573
vt 0.492188 0.177083
vt 0.402344 0.188802
vt 0.402344 0.183594
vt 0.421875 0.179688
vt 0.546875 0.179688
vt 0.492188 0.177083
vt 0.558594 0.177083
vt 0.492188 0.177083
vt 0.546875 0.179688
vt 0.492188 0.179688
vt 0.421875 0.179688
vt 0.492188 0.177083
vt 0.457031 0.179688
vt 0.421875 0.179688
vt 0.457031 0.179688
vt 0.402344 0.188802
vt 0.578125 0.170573
vt 0.558594 0.177083
vt 0.558594 0.173177
vt 0.546875 0.238281
vt 0.578125 0.240885
vt 0.566406 0.242188
vt 0.546875 0.238281
vt 0.566406 0.242188
vt 0.5 0.242188
vt 0.578125 0.240885
vt 0.546875 0.238281
vt 0.558594 0.236979
vt 0.578125 0.231771
vt 0.578125 0.240885
vt 0.558594 0.236979
vt 0.558594 0.231771
vt 0.578125 0.222656
vt 0.578125 0.231771
vt 0.558594 0.167969
vt 0.578125 0.170573
vt 0.558594 0.173177
vt 0.558594 0.167969
vt 0.558594 0.173177
vt 0.546875 0.170573
vt 0.511719 0.167969
vt 0.558594 0.167969
vt 0.546875 0.170573
vt 0.511719 0.167969
vt 0.546875 0.170573
vt 0.523438 0.170573
vt 0.492188 0.177083
vt 0.457031 0.177083
vt 0.476563 0.173177
vt 0.492188 0.177083
vt 0.421875 0.179688
vt 0.457031 0.177083
vt 0.457031 0.177083
vt 0.421875 0.179688
vt 0.414063 0.179688
vt 0.414063 0.179688
vt 0.378906 0.177083
vt 0.414063 0.177083
vt 0.378906 0.177083
vt 0.414063 0.179688
vt 0.402344 0.182292
vt 0.402344 0.183594
vt 0.402344 0.188802
vt 0.378906 0.192708
vt 0.378906 0.192708
vt 0.378906 0.177083
vt 0.402344 0.182292
vt 0.402344 0.182292
vt 0.402344 0.183594
vt 0.378906 0.192708
vt 0.378906 0.192708
vt 0.402344 0.188802
vt 0.402344 0.191406
vt 0.457031 0.200521
vt 0.46875 0.208333
vt 0.445313 0.203125
vt 0.445313 0.203125
vt 0.402344 0.191406
vt 0.457031 0.200521
vt 0.46875 0.208333
vt 0.457031 0.200521
vt 0.5 0.200521
vt 0.46875 0.208333
vt 0.5 0.200521
vt 0.5 0.210938
vt 0.46875 0.210938
vt 0.46875 0.208333
vt 0.5 0.210938
vt 0.46875 0.210938
vt 0.5 0.210938
vt 0.414063 0.233073
vt 0.390625 0.231771
vt 0.46875 0.210938
vt 0.414063 0.233073
vt 0.390625 0.236979
vt 0.390625 0.231771
vt 0.414063 0.233073
vt 0.390625 0.236979
vt 0.414063 0.233073
vt 0.414063 0.235677
vt 0.421875 0.242188
vt 0.390625 0.236979
vt 0.414063 0.235677
vt 0.421875 0.242188
vt 0.414063 0.235677
vt 0.433594 0.238281
vt 0.46875 0.242188
vt 0.421875 0.242188
vt 0.433594 0.238281
vt 0.46875 0.242188
vt 0.433594 0.238281
vt 0.5 0.242188
vt 0.5 0.242188
vt 0.523438 0.247396
vt 0.46875 0.242188
vt 0.46875 0.242188
vt 0.5 0.242188
vt 0.5 0.242188
vt 0.578125 0.244792
vt 0.613281 0.247396
vt 0.523438 0.247396
vt 0.523438 0.247396
vt 0.523438 0.244792
vt 0.578125 0.244792
vt 0.613281 0.247396
vt 0.578125 0.244792
vt 0.589844 0.242188
vt 0.613281 0.233073
vt 0.613281 0.247396
vt 0.589844 0.242188
vt 0.613281 0.233073
vt 0.589844 0.242188
vt 0.589844 0.236979
vt 0.578125 0.231771
vt 0.578125 0.222656
vt 0.613281 0.233073
vt 0.613281 0.233073
vt 0.589844 0.236979
vt 0.578125 0.231771
vt 0.578125 0.231771
vt 0.558594 0.236979
vt 0.558594 0.231771
vt 0.578125 0.170573
vt 0.578125 0.182292
vt 0.558594 0.182292
vt 0.546875 0.179688
vt 0.558594 0.177083
vt 0.558594 0.182292
vt 0.578125 0.182292
vt 0.578125 0.19401
vt 0.558594 0.182292
vt 0.558594 0.207031
vt 0.558594 0.19401
vt 0.578125 0.207031
vt 0.578125 0.207031
vt 0.578125 0.222656
vt 0.558594 0.207031
vt 0.558594 0.19401
vt 0.558594 0.182292
vt 0.578125 0.19401
vt 0.578125 0.19401
vt 0.578125 0.207031
vt 0.558594 0.19401
vt 0.558594 0.231771
vt 0.558594 0.207031
vt 0.578125 0.222656
vt 0.492188 0.177083
vt 0.492188 0.179688
vt 0.457031 0.179688
vt 0.492188 0.177083
vt 0.476563 0.173177
vt 0.511719 0.167969
vt 0.523438 0.247396
vt 0.5 0.242188
vt 0.523438 0.244792
vt 0.46875 0.242188
vt 0.46875 0.242188
vt 0.5 0.242188
vt 0.445313 0.203125
vt 0.378906 0.192708
vt 0.402344 0.191406
vt 0.414063 0.179688
vt 0.414063 0.177083
vt 0.457031 0.177083
vt 0.46875 0.242188
vt 0.46875 0.242188
vt 0.523438 0.247396
vt 0.578125 0.231771
vt 0.589844 0.236979
vt 0.589844 0.242188
vt 0.523438 0.244792
vt 0.5 0.242188
vt 0.5 0.242188
vt 0.578125 0.222656
vt 0.578125 0.207031
vt 0.578125 0.19401
vt 0.578125 0.19401
vt 0.578125 0.182292
vt 0.578125 0.170573
vt 0.558594 0.19401
vt 0.558594 0.207031
vt 0.558594 0.231771
vt 0.546875 0.179688
vt 0.558594 0.182292
vt 0.558594 0.19401
vt 0.523438 0.170573
vt 0.546875 0.170573
vt 0.558594 0.173177
vt 0.457031 0.177083
vt 0.414063 0.177083
vt 0.378906 0.177083
vt 0.402344 0.182292
vt 0.414063 0.179688
vt 0.421875 0.179688
vt 0.457031 0.200521
vt 0.402344 0.191406
vt 0.402344 0.188802
vt 0.414063 0.235677
vt 0.414063 0.233073
vt 0.5 0.210938
vt 0.46875 0.210938
vt 0.390625 0.231771
vt 0.390625 0.236979
vt 0.402344 0.183594
vt 0.402344 0.182292
vt 0.421875 0.179688
vn 0 1 0
vn 0 1 0
vn 0 1 0
vn 0 1 0
vn 0 1 0
vn 0 1 0
vn 0.216294 0.97032 0.108147
vn 0.216294 0.97032 0.108147
vn 0.216294 0.97032 0.108147
vn -0.580182 0.814487 0
vn -0.580182 0.814487 0
vn -0.580182 0.814487 0
vn 0.273308 0.95217 -0.136654
vn 0.273308 0.95217 -0.136654
vn 0.273308 0.95217 -0.136654
vn 0.327288 0.944914 0.00454567
vn 0.327288 0.944914 0.00454567
vn 0.327288 0.944914 0.00454567
vn 0 1 0
vn 0 1 0
vn 0 1 0
vn 0 0.961122 -0.276123
vn 0 0.961122 -0.276123
vn 0 0.961122 -0.276123
vn 0 1 0
vn 0 1 0
vn 0 1 0
vn 0 1 0
vn 0 1 0
vn 0 1 0
vn 0 1 -0
vn 0 1 -0
vn 0 1 -0
vn 0 1 0
vn 0 1 0
vn 0 1 0
vn 0.266163 0.926453 0.266163
vn 0.266163 0.926453 0.266163
vn 0.266163 0.926453 0.266163
vn 0 1 0
vn 0 1 0
vn 0 1 0
vn 0 1 -0
vn 0 1 -0
vn 0 1 -0
vn 0 1 0
vn 0 1 0
vn 0 1 0
vn 0.175812 0.980491 -0.0879061
vn 0.175812 0.980491 -0.0879061
vn 0.175812 0.980491 -0.0879061
vn 0.330895 0.929051 0.165447
vn 0.330895 0.929051 0.165447
vn 0.330895 0.929051 0.165447
vn -0 1 0
vn -0 1 0
vn -0 1 0
vn 0 1 0
vn 0 1 0
vn 0 1 0
vn -0.51783 0.358497 0.776744
vn -0.51783 0.358497 0.776744
vn -0.51783 0.358497 0.776744
vn 0 1 0
vn 0 1 0
vn 0 1 0
vn 0 1 0
vn 0 1 0
vn 0 1 0
vn 0 1 0
vn 0 1 0
vn 0 1 0
vn 0 1 0
vn 0 1 0
vn 0 1 0
vn 0 1 0
vn 0 1 0
vn 0 1 0
vn 0 1 0
vn 0 1 0
vn 0 1 0
vn 0 1 -0
vn 0 1 -0
vn 0 1 -0
vn -0.156374 0.979744 0.125099
vn -0.156374 0.979744 0.125099
vn -0.156374 0.979744 0.125099
vn 0 1 0
vn 0 1 0
vn 0 1 0
vn 0 1 0
vn 0 1 0
vn 0 1 0
vn 0 1 0
vn 0 1 0
vn 0 1 0
vn 0 1 -0
vn 0 1 -0
vn 0 1 -0
vn 0 1 0
vn 0 1 0
vn 0 1 0
vn 0.207708 0.88287 0.421186
vn 0.207708 0.88287 0.421186
vn 0.207708 0.88287 0.421186
vn -0.372842 0.537952 0.75604
vn -0.372842 0.537952 0.75604
vn -0.372842 0.537952 0.75604
vn 0 1 0
vn 0 1 0
vn 0 1 0
vn 0 1 0
vn 0 1 0
vn 0 1 0
vn -0 1 0
vn -0 1 0
vn -0 1 0
vn 0 1 0
vn 0 1 0
vn 0 1 0
vn 0 1 -0
vn 0 1 -0
vn 0 1 -0
vn -0 0 -1
vn -0 0 -1
vn -0 0 -1
vn 0 1 -0
vn 0 1 -0
vn 0 1 -0
vn 0 1 0
vn 0 1 0
vn 0 1 0
vn 0 1 0
vn 0 1 0
vn 0 1 0
vn 0 1 0
vn 0 1 0
vn 0 1 0
vn 0 1 0
vn 0 1 0
vn 0 1 0
vn 0 1 0
vn 0 1 0
vn 0 1 0
vn -0 1 0
vn -0 1 0
vn -0 1 0
vn -0.00602511 0.900985 0.433808
vn -0.00602511 0.900985 0.433808
vn -0.00602511 0.900985 0.433808
vn 0 1 0
vn 0 1 0
vn 0 1 0
vn 0 1 0
vn 0 1 0
vn 0 1 0
vn 0.00553396 0.917175 0.398445
vn 0.00553396 0.917175 0.398445
vn 0.00553396 0.917175 0.398445
vn 0 0.984623 -0.174691
vn 0 0.984623 -0.174691
vn 0 0.984623 -0.174691
vn 0 1 0
vn 0 1 0
vn 0 1 0
vn -0.0163738 0.919405 0.392971
vn -0.0163738 0.919405 0.392971
vn -0.0163738 0.919405 0.392971
vn 0.00719423 0.984955 -0.172661
vn 0.00719423 0.984955 -0.172661
vn 0.00719423 0.984955 -0.172661
vn 0 1 0
vn 0 1 0
vn 0 1 0
vn 0 1 -0
vn 0 1 -0
vn 0 1 -0
vn 0.157001 0.978595 0.133052
vn 0.157001 0.978595 0.133052
vn 0.157001 0.978595 0.133052
vn 0 1 0
vn 0 1 0
vn 0 1 0
vn 0 -0 -1
vn 0 -0 -1
vn 0 -0 -1
vn -0.0864688 0.981942 0.168264
vn -0.0864688 0.981942 0.168264
vn -0.0864688 0.981942 0.168264
vn -0.337566 0.94129 -0.00468842
vn -0.337566 0.94129 -0.00468842
vn -0.337566 0.94129 -0.00468842
vn 0.517986 -0 0.855389
vn 0.517986 -0 0.855389
vn 0.517986 -0 0.855389
vn 0 1 0
vn 0 1 0
vn 0 1 0
vn -0.447214 0 -0.894427
vn -0.447214 0 -0.894427
vn -0.447214 0 -0.894427
vn -1 0 -0
vn -1 0 -0
vn -1 0 -0
vn -1 0 0
vn -1 0 0
vn -1 0 0
vn 1 0 0
vn 1 0 0
vn 1 0 0
vn 0.374539 0.852597 0.364416
vn 0.374539 0.852597 0.364416
vn 0.374539 0.852597 0.364416
vn 0.318954 0.895523 0.310333
vn 0.318954 0.895523 0.310333
vn 0.318954 0.895523 0.310333
vn 0 0 -1
vn 0 0 -1
vn 0 0 -1
vn -0.635092 0.439679 0.635092
vn -0.635092 0.439679 0.635092
vn -0.635092 0.439679 0.635092
vn -0.276123 0.961122 0
vn -0.276123 0.961122 0
vn -0.276123 0.961122 0
vn -0.775379 0.366113 0.514537
vn -0.775379 0.366113 0.514537
vn -0.775379 0.366113 0.514537
vn 0.560808 -0.747266 -0.356494
vn 0.560808 -0.747266 -0.356494
vn 0.560808 -0.747266 -0.356494
vn -0.580182 0.814487 0
vn -0.580182 0.814487 0
vn -0.580182 0.814487 0
f 1/1/1 2/2/2 3/3/3
f 4/4/4 5/5/5 6/6/6
f 7/7/7 8/8/8 9/9/9
f 10/10/10 11/11/11 12/12/12
f 13/13/13 14/14/14 15/15/15
f 16/16/16 17/17/17 18/18/18
f 19/19/19 20/20/20 21/21/21
f 22/22/22 23/23/23 24/24/24
f 25/25/25 26/26/26 27/27/27
f 28/28/28 29/29/29 30/30/30
f 31/31/31 32/32/32 33/33/33
f 34/34/34 35/35/35 36/36/36
f 37/37/37 38/38/38 39/39/39
f 40/40/40 41/41/41 42/42/42
f 43/43/43 44/44/44 45/45/45
f 46/46/46 47/47/47 48/48/48
f 49/49/49 50/50/50 51/51/51
f 52/52/52 53/53/53 54/54/54
f 55/55/55 56/56/56 57/57/57
f 58/58/58 59/59/59 60/60/60
f 61/61/61 62/62/62 63/63/63
f 64/64/64 65/65/65 66/66/66
f 67/67/67 68/68/68 69/69/69
f 70/70/70 71/71/71 72/72/72
f 73/73/73 74/74/74 75/75/75
f 76/76/76 77/77/77 78/78/78
f 79/79/79 80/80/80 81/81/81
f 82/82/82 83/83/83 84/84/84
f 85/85/85 86/86/86 87/87/87
f 88/88/88 89/89/89 90/90/90
f 91/91/91 92/92/92 93/93/93
f 94/94/94 95/95/95 96/96/96
f 97/97/97 98/98/98 99/99/99
f 100/100/100 101/101/101 102/102/102
f 103/103/103 104/104/104 105/105/105
f 106/106/106 107/107/107 108/108/108
f 109/109/109 110/110/110 111/111/111
f 112/112/112 113/113/113 114/114/114
f 115/115/115 116/116/116 117/117/117
f 118/118/118 119/119/119 120/120/120
f 121/121/121 122/122/122 123/123/123
f 124/124/124 125/125/125 126/126/126
f 127/127/127 128/128/128 129/129/129
f 130/130/130 131/131/131 132/132/132
f 133/133/133 134/134/134 135/135/135
f 136/136/136 137/137/137 138/138/138
f 139/139/139 140/140/140 141/141/141
f 142/142/142 143/143/143 144/144/144
f 145/145/145 146/146/146 147/147/147
f 148/148/148 149/149/149 150/150/150
f 151/151/151 152/152/152 153/153/153
f 154/154/154 155/155/155 156/156/156
f 157/157/157 158/158/158 159/159/159
f 160/160/160 161/161/161 162/162/162
f 163/163/163 164/164/164 165/165/165
f 166/166/166 167/167/167 168/168/168
f 169/169/169 170/170/170 171/171/171
f 172/172/172 173/173/173 174/174/174
f 175/175/175 176/176/176 177/177/177
f 178/178/178 179/179/179 180/180/180
f 181/181/181 182/182/182 183/183/183
f 184/184/184 185/185/185 186/186/186
f 187/187/187 188/188/188 189/189/189
f 190/190/190 191/191/191 192/192/192
f 193/193/193 194/194/194 195/195/195
f 196/196/196 197/197/197 198/198/198
f 199/199/199 200/200/200 201/201/201
f 202/202/202 203/203/203 204/204/204
f 205/205/205 206/206/206 207/207/207
f 208/208/208 209/209/209 210/210/210
f 211/211/211 212/212/212 213/213/213
f 214/214/214 215/215/215 216/216/216
f 217/217/217 218/218/218 219/219/219
f 220/220/220 221/221/221 222/222/222
f 223/223/223 224/224/224 225/225/225
f 226/226/226 227/227/227 228/228/228
f 229/229/229 230/230/230 231/231/231
f 232/232/232 233/233/233 234/234/234
